HIERARCHY
ROOT Model
{
	OFFSET 0 0 0
	CHANNELS 6 Xposition Yposition Zposition Zrotation Xrotation Yrotation
	JOINT Model1
	{
		OFFSET 0 -2.25479 2.99384
		CHANNELS 3 Zrotation Xrotation Yrotation
		JOINT Model2
		{
			OFFSET 12.111 0 0
			CHANNELS 3 Zrotation Xrotation Yrotation
			JOINT Model3
			{
				OFFSET 11.5502 0 0
				CHANNELS 3 Zrotation Xrotation Yrotation
				JOINT Model4
				{
					OFFSET 11.781 0 0
					CHANNELS 3 Zrotation Xrotation Yrotation
					JOINT Model5
					{
						OFFSET 20.0601 0 0
						CHANNELS 3 Zrotation Xrotation Yrotation
						JOINT Model6
						{
							OFFSET 11.1962 0 0
							CHANNELS 3 Zrotation Xrotation Yrotation
							End Site
							{
								OFFSET 0 0 0
							}
						}
					}
					JOINT Model7
					{
						OFFSET 10.8223 0.417534 3.51114
						CHANNELS 3 Zrotation Xrotation Yrotation
						JOINT Model8
						{
							OFFSET -6.07944 0 0
							CHANNELS 3 Zrotation Xrotation Yrotation
							JOINT Model9
							{
								OFFSET -0.27742 10.39 -0.051239
								CHANNELS 3 Zrotation Xrotation Yrotation
								JOINT Model10
								{
									OFFSET -3.4391 -0.282043 1.86678
									CHANNELS 3 Zrotation Xrotation Yrotation
									JOINT Model11
									{
										OFFSET 13.0269 0 0
										CHANNELS 3 Zrotation Xrotation Yrotation
										JOINT Model12
										{
											OFFSET 10.8866 0 0
											CHANNELS 3 Zrotation Xrotation Yrotation
											JOINT Model13
											{
												OFFSET 16.7317 0 0
												CHANNELS 3 Zrotation Xrotation Yrotation
												JOINT Model14
												{
													OFFSET 11.8292 0 0
													CHANNELS 3 Zrotation Xrotation Yrotation
													JOINT Model15
													{
														OFFSET 4.82751 -3.73566 -0.836517
														CHANNELS 3 Zrotation Xrotation Yrotation
														JOINT Model16
														{
															OFFSET 3.75311 -0.0582886 -0.0186462
															CHANNELS 3 Zrotation Xrotation Yrotation
															JOINT Model17
															{
																OFFSET 2.88688 0.0192337 0.014801
																CHANNELS 3 Zrotation Xrotation Yrotation
																End Site
																{
																	OFFSET 0 0 0
																}
															}
														}
													}
													JOINT Model18
													{
														OFFSET 9.72197 -3.06458 0.23877
														CHANNELS 3 Zrotation Xrotation Yrotation
														JOINT Model19
														{
															OFFSET 4.61131 0 0
															CHANNELS 3 Zrotation Xrotation Yrotation
															JOINT Model20
															{
																OFFSET 2.8969 -7.62939e-006 0
																CHANNELS 3 Zrotation Xrotation Yrotation
																End Site
																{
																	OFFSET 0 0 0
																}
															}
														}
													}
													JOINT Model21
													{
														OFFSET 9.54431 -0.745064 0.588943
														CHANNELS 3 Zrotation Xrotation Yrotation
														JOINT Model22
														{
															OFFSET 5.33978 0 0
															CHANNELS 3 Zrotation Xrotation Yrotation
															JOINT Model23
															{
																OFFSET 3.03619 7.62939e-006 0
																CHANNELS 3 Zrotation Xrotation Yrotation
																End Site
																{
																	OFFSET 0 0 0
																}
															}
														}
													}
													JOINT Model24
													{
														OFFSET 9.47759 1.51286 0.485123
														CHANNELS 3 Zrotation Xrotation Yrotation
														JOINT Model25
														{
															OFFSET 4.96136 7.62939e-006 0
															CHANNELS 3 Zrotation Xrotation Yrotation
															JOINT Model26
															{
																OFFSET 2.51966 0 0
																CHANNELS 3 Zrotation Xrotation Yrotation
																End Site
																{
																	OFFSET 0 0 0
																}
															}
														}
													}
													JOINT Model27
													{
														OFFSET 9.34247 3.34117 -0.239273
														CHANNELS 3 Zrotation Xrotation Yrotation
														JOINT Model28
														{
															OFFSET 3.2826 2.28882e-005 0
															CHANNELS 3 Zrotation Xrotation Yrotation
															JOINT Model29
															{
																OFFSET 2.1292 0 0
																CHANNELS 3 Zrotation Xrotation Yrotation
																End Site
																{
																	OFFSET 0 0 0
																}
															}
														}
													}
												}
											}
										}
									}
								}
							}
						}
					}
					JOINT Model30
					{
						OFFSET 10.8223 0.4179 -3.51106
						CHANNELS 3 Zrotation Xrotation Yrotation
						JOINT Model31
						{
							OFFSET 6.07944 0 0
							CHANNELS 3 Zrotation Xrotation Yrotation
							JOINT Model32
							{
								OFFSET 0.27742 -10.39 0.051239
								CHANNELS 3 Zrotation Xrotation Yrotation
								JOINT Model33
								{
									OFFSET 3.4391 0.282043 -1.86678
									CHANNELS 3 Zrotation Xrotation Yrotation
									JOINT Model34
									{
										OFFSET -13.0269 0 0
										CHANNELS 3 Zrotation Xrotation Yrotation
										JOINT Model35
										{
											OFFSET -10.8866 0 0
											CHANNELS 3 Zrotation Xrotation Yrotation
											JOINT Model36
											{
												OFFSET -16.7317 0 0
												CHANNELS 3 Zrotation Xrotation Yrotation
												JOINT Model37
												{
													OFFSET -11.8292 0 0
													CHANNELS 3 Zrotation Xrotation Yrotation
													JOINT Model38
													{
														OFFSET -4.82751 3.73566 0.836517
														CHANNELS 3 Zrotation Xrotation Yrotation
														JOINT Model39
														{
															OFFSET -3.75311 0.0582886 0.0186462
															CHANNELS 3 Zrotation Xrotation Yrotation
															JOINT Model40
															{
																OFFSET -2.88689 -0.0192337 -0.014801
																CHANNELS 3 Zrotation Xrotation Yrotation
																End Site
																{
																	OFFSET 0 0 0
																}
															}
														}
													}
													JOINT Model41
													{
														OFFSET -9.72197 3.06459 -0.23877
														CHANNELS 3 Zrotation Xrotation Yrotation
														JOINT Model42
														{
															OFFSET -4.6113 0 0
															CHANNELS 3 Zrotation Xrotation Yrotation
															JOINT Model43
															{
																OFFSET -2.8969 0 0
																CHANNELS 3 Zrotation Xrotation Yrotation
																End Site
																{
																	OFFSET 0 0 0
																}
															}
														}
													}
													JOINT Model44
													{
														OFFSET -9.5443 0.745064 -0.588943
														CHANNELS 3 Zrotation Xrotation Yrotation
														JOINT Model45
														{
															OFFSET -5.33978 0 0
															CHANNELS 3 Zrotation Xrotation Yrotation
															JOINT Model46
															{
																OFFSET -3.03619 -1.52588e-005 0
																CHANNELS 3 Zrotation Xrotation Yrotation
																End Site
																{
																	OFFSET 0 0 0
																}
															}
														}
													}
													JOINT Model47
													{
														OFFSET -9.47758 -1.51286 -0.485123
														CHANNELS 3 Zrotation Xrotation Yrotation
														JOINT Model48
														{
															OFFSET -4.96136 -1.52588e-005 0
															CHANNELS 3 Zrotation Xrotation Yrotation
															JOINT Model49
															{
																OFFSET -2.51965 0 0
																CHANNELS 3 Zrotation Xrotation Yrotation
																End Site
																{
																	OFFSET 0 0 0
																}
															}
														}
													}
													JOINT Model50
													{
														OFFSET -9.34245 -3.34118 0.239273
														CHANNELS 3 Zrotation Xrotation Yrotation
														JOINT Model51
														{
															OFFSET -3.28259 -2.28882e-005 0
															CHANNELS 3 Zrotation Xrotation Yrotation
															JOINT Model52
															{
																OFFSET -2.1292 0 0
																CHANNELS 3 Zrotation Xrotation Yrotation
																End Site
																{
																	OFFSET 0 0 0
																}
															}
														}
													}
												}
											}
										}
									}
								}
							}
						}
					}
				}
			}
		}
	}
	JOINT Model53
	{
		OFFSET 4.38026 -2.14632 -1.11516
		CHANNELS 3 Zrotation Xrotation Yrotation
		JOINT Model54
		{
			OFFSET 0 0 4.95
			CHANNELS 3 Zrotation Xrotation Yrotation
			JOINT Model55
			{
				OFFSET 18.5642 0 0
				CHANNELS 3 Zrotation Xrotation Yrotation
				JOINT Model56
				{
					OFFSET 21.2884 0 1.52588e-005
					CHANNELS 3 Zrotation Xrotation Yrotation
					JOINT Model57
					{
						OFFSET 30.261 0 0
						CHANNELS 3 Zrotation Xrotation Yrotation
						JOINT Model58
						{
							OFFSET 11.7259 0 0
							CHANNELS 3 Zrotation Xrotation Yrotation
							JOINT Model59
							{
								OFFSET 10.682 0 0
								CHANNELS 3 Zrotation Xrotation Yrotation
								End Site
								{
									OFFSET 0 0 0
								}
							}
						}
					}
				}
			}
		}
	}
	JOINT Model60
	{
		OFFSET -4.38026 -2.14632 -1.11516
		CHANNELS 3 Zrotation Xrotation Yrotation
		JOINT Model61
		{
			OFFSET 0 0 -4.95
			CHANNELS 3 Zrotation Xrotation Yrotation
			JOINT Model62
			{
				OFFSET -18.5642 0 0
				CHANNELS 3 Zrotation Xrotation Yrotation
				JOINT Model63
				{
					OFFSET -21.2884 0 -1.52588e-005
					CHANNELS 3 Zrotation Xrotation Yrotation
					JOINT Model64
					{
						OFFSET -30.261 0 0
						CHANNELS 3 Zrotation Xrotation Yrotation
						JOINT Model65
						{
							OFFSET -11.7259 0 0
							CHANNELS 3 Zrotation Xrotation Yrotation
							JOINT Model66
							{
								OFFSET -10.682 0 0
								CHANNELS 3 Zrotation Xrotation Yrotation
								End Site
								{
									OFFSET 0 0 0
								}
							}
						}
					}
				}
			}
		}
	}
}
MOTION
Frames: 4
Frame Time: 0.033333
-233.08 150.062 -360.665 9.60872 -40.1575 -3.77274 -180 4.29621e-031 -90 4.26904 0.284021 0.729524 8.53432 0.621101 1.43591 8.53432 0.621533 1.43585 -6.00952 -8.75498 -6.86923 -43.2415 -12.391 3.68641 120.092 75.5343 58.4939 -3.8837 17.8616 7.06401 -167.277 84.4999 48.8109 176.968 1.99242 23.1165 1.98475e-006 17.6503 3.16642e-005 -22.5861 8.80714 -2.97737 -2.57778e-008 12.835 -3.83528e-007 -6.19366 0.650712 -11.9836 -72.0648 39.0385 39.3397 33.3638 2.10362 14.835 0.588947 0.308272 6.35287 -99.6409 81.413 100.35 -0.0181409 2.74047e-005 -0.117315 -0.124139 0.00241065 -0.799296 -79.8382 79.5773 80.5374 -0.000225749 -0.000221294 2.20438e-005 -0.000956189 0.000122391 -2.75249e-005 -66.7416 80.4058 67.2171 -0.000437105 1.5578e-005 -2.74657e-005 -0.000136567 -0.000109789 -5.48379e-005 -6.42159 81.2158 8.01779 -0.000218537 1.65349e-005 0.000212012 0.000901624 -0.000185307 -0.00021874 -59.9282 75.5373 58.5147 -1.58143 20.1682 7.01075 -167.277 84.4999 48.8109 174.776 -12.4823 5.82173 6.06633e-006 2.46298 2.82362e-005 -52.9202 0.184542 0.485888 -3.73493e-007 -0.389943 1.21428e-007 22.485 -2.32429 -11.6543 -72.0648 39.0385 39.3397 33.3638 2.10361 14.835 0.588946 0.308273 6.35287 -99.6409 81.413 100.35 -0.0181409 3.01989e-005 -0.117315 -0.124139 0.0024113 -0.799296 -79.8382 79.5773 80.5374 -0.000260584 -0.000218447 2.3597e-005 -0.000956142 0.000123156 -2.7285e-005 -66.7416 80.4058 67.2171 -0.000437068 1.50031e-005 -2.72995e-005 -0.000136517 -0.000109119 -5.46129e-005 -6.42159 81.2158 8.01779 -0.0002185 1.96956e-005 0.000212294 0.000901672 -0.000191088 -0.000218569 0.000811311 0.56661 89.91 -109.019 -1.16248 12.2335 1.10709e-006 6.69152 -2.14473e-008 84.397 4.11729 -0.00860132 9.53198e-008 6.05392 1.47172e-007 -71.8655 5.19897 -3.6406 -38.5368 -7.33004 -0.0280224 -180 -0.566579 -90.09 -87.8936 7.7719 -24.4865 -7.19078e-006 2.75275 -1.41622e-006 104.718 7.08631 -0.00806965 7.99023e-007 10.511 1.14585e-006 -70.4094 -1.11102 -0.433914 -54.1577 6.89897 0.385561 
-235.998 152.63 -358.305 11.5091 -41.0024 -1.41332 -180 4.29621e-031 -90 4.11819 0.177505 1.12483 8.2322 0.434856 2.23404 8.2322 0.435289 2.23398 -5.94013 -8.82059 -6.50783 -44.4414 -12.1856 3.2415 120.092 75.5343 58.4939 -2.76241 18.2654 6.81455 -167.277 84.4999 48.8109 173.616 -3.73256 21.6415 6.22314e-006 10.0773 3.06464e-005 -36.0451 10.5084 0.363914 -9.36149e-009 15.2023 -3.87506e-007 -6.73499 0.659596 -11.1742 -72.0648 39.0385 39.3397 33.3638 2.10362 14.835 0.588947 0.308272 6.35287 -99.6409 81.413 100.35 -0.0181409 2.74047e-005 -0.117315 -0.124139 0.00241065 -0.799296 -79.8382 79.5773 80.5374 -0.000225749 -0.000221294 2.20438e-005 -0.000956189 0.000122391 -2.75249e-005 -66.7416 80.4058 67.2171 -0.000437105 1.5578e-005 -2.74657e-005 -0.000136567 -0.000109789 -5.48379e-005 -6.42159 81.2158 8.01779 -0.000218537 1.65349e-005 0.000212012 0.000901624 -0.000185307 -0.00021874 -59.9282 75.5373 58.5147 -2.23955 19.1637 6.92397 -167.277 84.4999 48.8109 175.885 -12.5172 5.74504 6.05613e-006 2.48364 2.82367e-005 -55.0721 0.581025 0.499336 -3.74745e-007 0.201082 1.21426e-007 22.0583 -2.27867 -11.6522 -72.0648 39.0385 39.3397 33.3638 2.10361 14.835 0.588946 0.308273 6.35287 -99.6409 81.413 100.35 -0.0181409 3.01989e-005 -0.117315 -0.124139 0.0024113 -0.799296 -79.8382 79.5773 80.5374 -0.000260584 -0.000218447 2.3597e-005 -0.000956142 0.000123156 -2.7285e-005 -66.7416 80.4058 67.2171 -0.000437068 1.50031e-005 -2.72995e-005 -0.000136517 -0.000109119 -5.46129e-005 -6.42159 81.2158 8.01779 -0.0002185 1.96956e-005 0.000212294 0.000901672 -0.000191088 -0.000218569 0.000811311 0.56661 89.91 -103.731 -0.034717 11.3721 1.10716e-006 6.85754 -2.14547e-008 80.3089 4.71987 -0.00862085 9.29778e-008 6.95899 1.47438e-007 -70.04 5.3108 -3.74157 -39.9214 -7.60542 -0.302147 -180 -0.566579 -90.09 -92.6972 10.7158 -25.3953 -7.13167e-006 5.13547 -1.42028e-006 100.004 5.23375 -0.00800725 8.55133e-007 7.72977 1.13695e-006 -72.4444 0.123793 -1.13226 -43.5624 -4.56062 -0.856547 
-239.184 154.722 -356.064 12.4272 -41.6511 0.505222 -180 4.29621e-031 -90 4.07182 0.0602546 1.46542 8.14082 0.223945 2.92288 8.14082 0.224378 2.92282 -7.34315 -8.57202 -7.676 -43.8292 -12.5723 3.75026 120.092 75.5343 58.4939 -1.41191 17.5908 6.14228 -167.277 84.4999 48.8109 168.286 -3.956 18.0128 5.30974e-006 11.7494 3.08194e-005 -51.3907 9.9823 0.482679 -1.55794e-008 14.3114 -3.85922e-007 -2.36405 0.321526 -15.4879 -72.0648 39.0385 39.3397 33.3638 2.10362 14.835 0.588947 0.308272 6.35287 -99.6409 81.413 100.35 -0.0181409 2.74047e-005 -0.117315 -0.124139 0.00241065 -0.799296 -79.8382 79.5773 80.5374 -0.000225749 -0.000221294 2.20438e-005 -0.000956189 0.000122391 -2.75249e-005 -66.7416 80.4058 67.2171 -0.000437105 1.5578e-005 -2.74657e-005 -0.000136567 -0.000109789 -5.48379e-005 -6.42159 81.2158 8.01779 -0.000218537 1.65349e-005 0.000212012 0.000901624 -0.000185307 -0.00021874 -59.9282 75.5373 58.5147 -1.8839 19.0295 6.7572 -167.277 84.4999 48.8109 176.399 -12.202 6.28694 5.91725e-006 2.76512 2.8243e-005 -56.6601 0.689733 0.508813 -3.75088e-007 0.362834 1.21428e-007 22.0803 -2.47512 -12.6365 -72.0648 39.0385 39.3397 33.3638 2.10361 14.835 0.588946 0.308273 6.35287 -99.6409 81.413 100.35 -0.0181409 3.01989e-005 -0.117315 -0.124139 0.0024113 -0.799296 -79.8382 79.5773 80.5374 -0.000260584 -0.000218447 2.3597e-005 -0.000956142 0.000123156 -2.7285e-005 -66.7416 80.4058 67.2171 -0.000437068 1.50031e-005 -2.72995e-005 -0.000136517 -0.000109119 -5.46129e-005 -6.42159 81.2158 8.01779 -0.0002185 1.96956e-005 0.000212294 0.000901672 -0.000191088 -0.000218569 0.000811311 0.56661 89.91 -99.4277 1.19833 9.21035 1.10714e-006 6.81633 -2.14529e-008 77.0451 5.3245 -0.00863082 9.06182e-008 7.86738 1.47742e-007 -67.7503 5.5146 -3.91036 -41.5331 -8.36749 -0.64893 -180 -0.566579 -90.09 -96.2151 12.7728 -26.571 -7.1006e-006 6.38112 -1.4234e-006 92.5776 3.15118 -0.00795585 9.17331e-007 4.60389 1.13027e-006 -74.3055 1.79749 -1.97913 -35.4947 9.96079e-007 -3.25163e-007 
-242.551 156.351 -353.812 12.6246 -42.4102 1.80881 -180 4.29621e-031 -90 4.06495 0.0134592 1.62928 8.12791 0.141923 3.25352 8.12791 0.142355 3.25346 -8.46919 -8.41482 -8.09423 -42.8167 -12.9676 4.61131 120.092 75.5343 58.4939 0.967284 17.5498 5.34074 -167.277 84.4999 48.8109 165.046 -3.40536 14.0755 4.09361e-006 13.9442 3.10898e-005 -69.2451 9.60642 0.57726 -1.93305e-008 13.7705 -3.85012e-007 4.5732 -0.862676 -21.3545 -72.0648 39.0385 39.3397 33.3638 2.10362 14.835 0.588947 0.308272 6.35287 -99.6409 81.413 100.35 -0.0181409 2.74047e-005 -0.117315 -0.124139 0.00241065 -0.799296 -79.8382 79.5773 80.5374 -0.000225749 -0.000221294 2.20438e-005 -0.000956189 0.000122391 -2.75249e-005 -66.7416 80.4058 67.2171 -0.000437105 1.5578e-005 -2.74657e-005 -0.000136567 -0.000109789 -5.48379e-005 -6.42159 81.2158 8.01779 -0.000218537 1.65349e-005 0.000212012 0.000901624 -0.000185307 -0.00021874 -59.9282 75.5373 58.5147 -1.71905 18.818 6.63304 -167.277 84.4999 48.8109 176.335 -11.7344 7.09014 5.72698e-006 3.15054 2.82529e-005 -57.2965 0.334348 0.51249 -3.73958e-007 -0.170452 1.21426e-007 21.5784 -2.61221 -13.6453 -72.0648 39.0385 39.3397 33.3638 2.10361 14.835 0.588946 0.308273 6.35287 -99.6409 81.413 100.35 -0.0181409 3.01989e-005 -0.117315 -0.124139 0.0024113 -0.799296 -79.8382 79.5773 80.5374 -0.000260584 -0.000218447 2.3597e-005 -0.000956142 0.000123156 -2.7285e-005 -66.7416 80.4058 67.2171 -0.000437068 1.50031e-005 -2.72995e-005 -0.000136517 -0.000109119 -5.46129e-005 -6.42159 81.2158 8.01779 -0.0002185 1.96956e-005 0.000212294 0.000901672 -0.000191088 -0.000218569 0.000811311 0.56661 89.91 -95.4589 2.35981 6.15593 1.10705e-006 6.57722 -2.14424e-008 74.4141 6.06019 -0.00863411 8.77337e-008 8.97239 1.48165e-007 -65.9202 6.26556 -4.38694 -42.795 -9.68741 -0.984186 -180 -0.566579 -90.09 -98.2058 13.6567 -28.7192 -7.11546e-006 5.78588 -1.42183e-006 82.6368 2.49867 -0.00789634 9.3666e-007 3.62598 1.12888e-006 -74.7222 4.03778 -3.03136 -35.4947 3.10725e-006 -4.403e-007 
